<svg id="Calque_1" data-name="Calque 1" xmlns="http://www.w3.org/2000/svg" viewBox="0 0 393.48 88.59"><defs><style>.cls-1{fill:#854413;}.cls-2{fill:#f1861c;}.cls-3{fill:#1a3e6f;}.cls-4{fill:#a9cee1;}.cls-5{fill:#467ab0;}.cls-6{fill:#fff;}</style></defs><polygon class="cls-1" points="315.92 53.43 315.92 23.37 354.53 0.08 354.51 10.37 325.5 27.16 325.5 32.95 354.53 15.54 354.53 25.4 325.33 42.36 325.33 48.31 315.92 53.43"/><polygon class="cls-2" points="355.89 72.59 315.75 53.26 325.17 48.31 355.89 63.5 362.17 60.37 334.03 45.83 342.68 41.04 369.93 55.5 372.9 54.09 372.9 50.62 348.29 37.57 355.06 33.28 379.84 45.99 379.68 57.89 355.89 72.59"/><polygon class="cls-3" points="355.89 72.59 355.89 63.5 372.9 54.09 372.9 50.62 379.84 46.49 379.84 57.89 355.89 72.59"/><polygon class="cls-3" points="384.12 27.51 393.48 22.56 393.48 64.38 356.06 88.59 316.44 69.88 316.44 57.78 355.79 77.31 384.4 59.7 384.12 27.51"/><polygon class="cls-4" points="384.12 27.51 354.41 10.46 354.41 0 393.48 22.56 384.12 27.51"/><polygon class="cls-5" points="356.06 88.59 316.44 69.88 316.44 57.78 356.06 77.03 356.06 88.59"/><path class="cls-6" d="M33,34.33a5.58,5.58,0,0,1,.55,1.32,5.75,5.75,0,0,1,.25,1.71,3.41,3.41,0,0,1-.74,2.47,2.64,2.64,0,0,1-2,.74H21.73v5h9.75a4.26,4.26,0,0,1,.6,1.3,5.48,5.48,0,0,1,.25,1.69A3.35,3.35,0,0,1,31.59,51a2.67,2.67,0,0,1-2,.73H21.82v9.4a12.38,12.38,0,0,1-1.54.27,16.21,16.21,0,0,1-2.07.13,9.65,9.65,0,0,1-1.81-.15,3.25,3.25,0,0,1-1.31-.56,2.4,2.4,0,0,1-.8-1.12A5.33,5.33,0,0,1,14,57.85V38.48a3.85,3.85,0,0,1,4.14-4.15Z" transform="translate(-14.02 -3.05)"/><path class="cls-6" d="M43.78,61.28a10.43,10.43,0,0,1-1.41.27,14,14,0,0,1-2,.13,10.44,10.44,0,0,1-1.76-.13A3.09,3.09,0,0,1,37.32,61a2.62,2.62,0,0,1-.83-1.09,4.84,4.84,0,0,1-.28-1.81V44.76A3.81,3.81,0,0,1,36.58,43a4.26,4.26,0,0,1,1.1-1.32,8,8,0,0,1,1.75-1,19.13,19.13,0,0,1,2.25-.83,20.17,20.17,0,0,1,2.5-.55,16,16,0,0,1,2.58-.2,6.07,6.07,0,0,1,3.39.82,3,3,0,0,1,1.25,2.69,4.26,4.26,0,0,1-.18,1.23,5.65,5.65,0,0,1-.45,1.09c-.62,0-1.26,0-1.91.09a19.29,19.29,0,0,0-1.92.27c-.62.12-1.21.24-1.76.38a7.92,7.92,0,0,0-1.4.46Z" transform="translate(-14.02 -3.05)"/><path class="cls-6" d="M65.12,62a15.6,15.6,0,0,1-4.88-.73,11,11,0,0,1-3.92-2.21,10.13,10.13,0,0,1-2.63-3.7,13.06,13.06,0,0,1-1-5.21,12.13,12.13,0,0,1,1-5,9.77,9.77,0,0,1,6.08-5.48,13.31,13.31,0,0,1,4.1-.65,12.55,12.55,0,0,1,4.3.71,10.52,10.52,0,0,1,3.34,2,8.88,8.88,0,0,1,2.18,3,9.13,9.13,0,0,1,.78,3.78,3,3,0,0,1-.85,2.32,4.19,4.19,0,0,1-2.36,1l-11,1.64a3.71,3.71,0,0,0,2,2.21,7.88,7.88,0,0,0,3.48.73,12.45,12.45,0,0,0,3.45-.46,11,11,0,0,0,2.65-1.1A3.69,3.69,0,0,1,73,56.07a3.27,3.27,0,0,1-1.38,4.68,9.85,9.85,0,0,1-3.2,1A22.47,22.47,0,0,1,65.12,62ZM63.87,44.53a4.39,4.39,0,0,0-1.85.36,3.8,3.8,0,0,0-1.27.91A4,4,0,0,0,60,47.05a4.91,4.91,0,0,0-.28,1.4l7.61-1.24a3.29,3.29,0,0,0-1-1.78A3.24,3.24,0,0,0,63.87,44.53Z" transform="translate(-14.02 -3.05)"/><path class="cls-6" d="M89.57,62a15.65,15.65,0,0,1-4.88-.73,11.12,11.12,0,0,1-3.92-2.21,10.1,10.1,0,0,1-2.62-3.7,13.06,13.06,0,0,1-1-5.21,12.13,12.13,0,0,1,1-5,9.93,9.93,0,0,1,2.51-3.48,10.13,10.13,0,0,1,3.57-2A13.25,13.25,0,0,1,88.32,39a12.47,12.47,0,0,1,4.3.71,10.41,10.41,0,0,1,3.34,2,8.77,8.77,0,0,1,2.19,3,9.13,9.13,0,0,1,.78,3.78,3.06,3.06,0,0,1-.85,2.32,4.19,4.19,0,0,1-2.36,1l-11,1.64a3.68,3.68,0,0,0,2,2.21,7.88,7.88,0,0,0,3.48.73,12.55,12.55,0,0,0,3.45-.46,11.31,11.31,0,0,0,2.65-1.1,3.89,3.89,0,0,1,1.2,1.25,3.27,3.27,0,0,1-1.38,4.68,9.83,9.83,0,0,1-3.21,1A22.37,22.37,0,0,1,89.57,62ZM88.32,44.53a4.31,4.31,0,0,0-1.84.36,3.7,3.7,0,0,0-1.27.91,3.8,3.8,0,0,0-.74,1.25,5.29,5.29,0,0,0-.29,1.4l7.62-1.24a3.36,3.36,0,0,0-1-1.78A3.28,3.28,0,0,0,88.32,44.53Z" transform="translate(-14.02 -3.05)"/><path class="cls-6" d="M110.29,61.28l-1.45.25a12.58,12.58,0,0,1-1.94.15,10.44,10.44,0,0,1-1.76-.13,3,3,0,0,1-1.31-.53,2.54,2.54,0,0,1-.83-1.09,4.83,4.83,0,0,1-.29-1.81V32.28l1.45-.24a12.49,12.49,0,0,1,1.94-.16,10.38,10.38,0,0,1,1.76.14,2.92,2.92,0,0,1,1.31.53,2.62,2.62,0,0,1,.83,1.09,4.79,4.79,0,0,1,.29,1.81Z" transform="translate(-14.02 -3.05)"/><path class="cls-6" d="M124,39a18.15,18.15,0,0,1,4.39.49A10,10,0,0,1,131.73,41a6.7,6.7,0,0,1,2.16,2.54,8.09,8.09,0,0,1,.76,3.63v10A2.76,2.76,0,0,1,134,59a6.37,6.37,0,0,1-1.54,1.27Q129.57,62,124.32,62a19,19,0,0,1-4.26-.44,10.31,10.31,0,0,1-3.25-1.34A6.06,6.06,0,0,1,114.72,58a6.73,6.73,0,0,1-.74-3.21,6,6,0,0,1,1.83-4.72A9.86,9.86,0,0,1,121.47,48l5.83-.62v-.32a1.93,1.93,0,0,0-1.13-1.85,7.7,7.7,0,0,0-3.28-.55,15.5,15.5,0,0,0-3.29.35,17.38,17.38,0,0,0-2.9.9,3.11,3.11,0,0,1-1-1.23,3.83,3.83,0,0,1-.4-1.71,2.8,2.8,0,0,1,.56-1.85A4.23,4.23,0,0,1,117.59,40a13.28,13.28,0,0,1,3-.72A28.15,28.15,0,0,1,124,39Zm.36,17.51a9.47,9.47,0,0,0,1.67-.16,4,4,0,0,0,1.36-.42V52.37l-3.21.27a4.88,4.88,0,0,0-2,.54,1.43,1.43,0,0,0-.8,1.33A1.77,1.77,0,0,0,122,56,3.79,3.79,0,0,0,124.32,56.52Z" transform="translate(-14.02 -3.05)"/><path class="cls-6" d="M153,47.61a2.52,2.52,0,0,0-.78-2,3.23,3.23,0,0,0-2.12-.64,7,7,0,0,0-1.76.22,4.34,4.34,0,0,0-1.49.67V61.28a10.43,10.43,0,0,1-1.41.27,14,14,0,0,1-2,.13,10.44,10.44,0,0,1-1.76-.13A3,3,0,0,1,140.4,61a2.62,2.62,0,0,1-.83-1.09,4.83,4.83,0,0,1-.29-1.81V44.76a3.44,3.44,0,0,1,.52-2,5.26,5.26,0,0,1,1.4-1.38A12.46,12.46,0,0,1,145,39.68a18,18,0,0,1,5.1-.67c3.35,0,5.94.74,7.75,2.21a7.45,7.45,0,0,1,2.72,6.12V61.28a10.43,10.43,0,0,1-1.41.27,14,14,0,0,1-2,.13,10.44,10.44,0,0,1-1.76-.13,3,3,0,0,1-1.31-.53,2.62,2.62,0,0,1-.83-1.09,4.84,4.84,0,0,1-.28-1.81Z" transform="translate(-14.02 -3.05)"/><path class="cls-6" d="M177.46,45a6.25,6.25,0,0,0-2.12.36,4.82,4.82,0,0,0-1.73,1,5.06,5.06,0,0,0-1.18,1.72,5.91,5.91,0,0,0-.45,2.4,5.22,5.22,0,0,0,1.58,4.15A5.67,5.67,0,0,0,177.42,56a7.87,7.87,0,0,0,2.31-.31,14.13,14.13,0,0,0,1.74-.67,4.66,4.66,0,0,1,1.34,1.36,3.38,3.38,0,0,1,.44,1.76A3.11,3.11,0,0,1,181.51,61a9.62,9.62,0,0,1-4.81,1,14.73,14.73,0,0,1-5.07-.83,11.47,11.47,0,0,1-3.9-2.31,10.15,10.15,0,0,1-2.52-3.59,11.79,11.79,0,0,1-.89-4.63,12.82,12.82,0,0,1,1-5.15,9.94,9.94,0,0,1,2.6-3.63,11.15,11.15,0,0,1,3.81-2.14,14.62,14.62,0,0,1,4.57-.71,8.89,8.89,0,0,1,4.94,1.16,3.47,3.47,0,0,1,1.74,3,3.17,3.17,0,0,1-.4,1.58A5.37,5.37,0,0,1,181.6,46a16.88,16.88,0,0,0-1.82-.69A7.88,7.88,0,0,0,177.46,45Z" transform="translate(-14.02 -3.05)"/><path class="cls-6" d="M197.82,62a15.65,15.65,0,0,1-4.88-.73A11,11,0,0,1,189,59.1a10.24,10.24,0,0,1-2.63-3.7,13.06,13.06,0,0,1-1-5.21,12.13,12.13,0,0,1,1-5,9.77,9.77,0,0,1,6.08-5.48,13.36,13.36,0,0,1,4.1-.65,12.47,12.47,0,0,1,4.3.71,10.41,10.41,0,0,1,3.34,2,8.74,8.74,0,0,1,2.18,3,9.13,9.13,0,0,1,.78,3.78,3.05,3.05,0,0,1-.84,2.32,4.22,4.22,0,0,1-2.36,1l-11,1.64a3.73,3.73,0,0,0,2,2.21,7.86,7.86,0,0,0,3.47.73,12.45,12.45,0,0,0,3.45-.46,11.22,11.22,0,0,0,2.66-1.1,3.89,3.89,0,0,1,1.2,1.25,3.27,3.27,0,0,1,.49,1.69,3.19,3.19,0,0,1-1.87,3,9.83,9.83,0,0,1-3.21,1A22.37,22.37,0,0,1,197.82,62Zm-1.25-17.51a4.39,4.39,0,0,0-1.85.36,3.8,3.8,0,0,0-1.27.91,4,4,0,0,0-.73,1.25,4.92,4.92,0,0,0-.29,1.4l7.62-1.24a3.36,3.36,0,0,0-1-1.78A3.28,3.28,0,0,0,196.57,44.53Z" transform="translate(-14.02 -3.05)"/><path class="cls-6" d="M229.09,54.87a6.28,6.28,0,0,1-2.54,5.3c-1.69,1.28-4.19,1.92-7.48,1.92a21,21,0,0,1-3.48-.27,9.73,9.73,0,0,1-2.74-.83,4.87,4.87,0,0,1-1.78-1.4,3.19,3.19,0,0,1-.64-2,3.4,3.4,0,0,1,.44-1.81,4.37,4.37,0,0,1,1.07-1.22,18.16,18.16,0,0,0,3,1.27,12.25,12.25,0,0,0,3.85.55,4.46,4.46,0,0,0,2.12-.4,1.2,1.2,0,0,0,.74-1.07,1.12,1.12,0,0,0-.54-1,5.09,5.09,0,0,0-1.78-.58L218,53.09a12.56,12.56,0,0,1-5.77-2.39,5.79,5.79,0,0,1-1.89-4.65,6.34,6.34,0,0,1,.71-3,6.28,6.28,0,0,1,2-2.22,9.74,9.74,0,0,1,3.09-1.38,15.14,15.14,0,0,1,4-.49,19,19,0,0,1,3.1.24,9.78,9.78,0,0,1,2.51.74,4.47,4.47,0,0,1,1.7,1.27,2.88,2.88,0,0,1,.62,1.84,3.81,3.81,0,0,1-.38,1.76,3.92,3.92,0,0,1-1,1.23,5.57,5.57,0,0,0-1.06-.47c-.48-.16-1-.31-1.56-.44s-1.14-.25-1.72-.34a10.37,10.37,0,0,0-1.58-.13,6.15,6.15,0,0,0-2.27.33,1.1,1.1,0,0,0-.8,1,.93.93,0,0,0,.44.8,5.12,5.12,0,0,0,1.69.58l1.39.31c2.85.66,4.87,1.55,6.08,2.7A5.84,5.84,0,0,1,229.09,54.87Z" transform="translate(-14.02 -3.05)"/><path class="cls-6" d="M232.83,32.33a11.12,11.12,0,0,1,1.43-.29,13.16,13.16,0,0,1,2-.16A10.38,10.38,0,0,1,238,32a3,3,0,0,1,1.32.53,2.49,2.49,0,0,1,.8,1.09,5.06,5.06,0,0,1,.26,1.81v4.36a11.56,11.56,0,0,1,2.12-.62,12.51,12.51,0,0,1,2.21-.18,10.84,10.84,0,0,1,4.05.76,10,10,0,0,1,3.38,2.2,10.21,10.21,0,0,1,2.32,3.59,13.41,13.41,0,0,1,.85,4.94,13.5,13.5,0,0,1-.87,5.06A9.67,9.67,0,0,1,252,59.15a10.31,10.31,0,0,1-3.81,2.16,15.89,15.89,0,0,1-5,.73,15.69,15.69,0,0,1-5-.69,13.13,13.13,0,0,1-3.48-1.71,4.19,4.19,0,0,1-2-3.57Zm10.43,23.74a3.88,3.88,0,0,0,3.18-1.4,6.5,6.5,0,0,0,1.14-4.17,6.4,6.4,0,0,0-1.16-4.18,3.86,3.86,0,0,0-3.12-1.38,6.3,6.3,0,0,0-1.54.17,8.64,8.64,0,0,0-1.4.54v9.71a4.42,4.42,0,0,0,1.18.51A6,6,0,0,0,243.26,56.07Z" transform="translate(-14.02 -3.05)"/><path class="cls-6" d="M281.43,50.5a13.3,13.3,0,0,1-.85,4.93,9.85,9.85,0,0,1-2.38,3.63,10,10,0,0,1-3.67,2.22,14.12,14.12,0,0,1-4.77.76,13.64,13.64,0,0,1-4.77-.8A10.62,10.62,0,0,1,261.32,59a10.14,10.14,0,0,1-2.38-3.64,13.89,13.89,0,0,1,0-9.57,10,10,0,0,1,2.38-3.63,10.49,10.49,0,0,1,3.67-2.3,13.64,13.64,0,0,1,4.77-.8,13.41,13.41,0,0,1,4.77.82,10.84,10.84,0,0,1,3.67,2.32,10.19,10.19,0,0,1,2.38,3.63A12.62,12.62,0,0,1,281.43,50.5Zm-15.59,0a7,7,0,0,0,1.05,4.17,3.4,3.4,0,0,0,2.91,1.45,3.28,3.28,0,0,0,2.88-1.47,7.29,7.29,0,0,0,1-4.15,7.1,7.1,0,0,0-1-4.12,3.64,3.64,0,0,0-5.8,0A7.1,7.1,0,0,0,265.84,50.5Z" transform="translate(-14.02 -3.05)"/><path class="cls-6" d="M283.7,43.2a5.43,5.43,0,0,1,1.41-2.76,3.45,3.45,0,0,1,2.6-1.07,3.32,3.32,0,0,1,2.27.71,14.52,14.52,0,0,1,1.79,2l2.85,3.75,4.76-6.46a7.41,7.41,0,0,1,3.88.87,2.61,2.61,0,0,1,1.42,2.33,3.41,3.41,0,0,1-.15,1,4.71,4.71,0,0,1-.47,1,12.28,12.28,0,0,1-.8,1.11c-.33.42-.71.91-1.16,1.47l-2.94,3.3L305,58.17a4.16,4.16,0,0,1-1.34,2.67,3.91,3.91,0,0,1-2.67,1,4,4,0,0,1-2.7-1,14.92,14.92,0,0,1-1.94-2.27L294,55.14l-4.54,6.54-.49,0-.45,0a5.41,5.41,0,0,1-3.45-.94,2.83,2.83,0,0,1-1.18-2.31,3.53,3.53,0,0,1,.51-1.9,20.82,20.82,0,0,1,1.76-2.25l3.56-4.14Z" transform="translate(-14.02 -3.05)"/></svg>