<svg xmlns="http://www.w3.org/2000/svg" viewBox="0 0 512.86 347.58">
  <title>email verified users-NEW</title>
  <path d="M512.1,367.15c0,34.54-24,62.64-53.48,62.64H53.41c-29.5,0-53.49-28.1-53.49-62.64V144.85c0-34.54,24-62.64,53.49-62.64H458.62c29.49,0,53.48,28.1,53.48,62.64a15,15,0,0,1-30,0c0-17.69-10.75-32.64-23.48-32.64H53.41c-12.73,0-23.49,15-23.49,32.64v222.3c0,17.69,10.76,32.64,23.49,32.64H458.62c12.73,0,23.48-15,23.48-32.64A15,15,0,0,1,512.1,367.15ZM512.78,263l-23.36-32.47L375.81,312.3l-43.28-39.73-27,29.47,67.27,61.74Z" transform="translate(0.08 -82.21)" fill="#40ba88"/>
  <path d="M261.83,275.57l-172-93.23A15,15,0,1,1,104.15,156l157.67,85.48,159.52-86.62a15,15,0,1,1,14.31,26.36Z" transform="translate(0.08 -82.21)" fill="#7f7f7f"/>
</svg>
