<svg xmlns="http://www.w3.org/2000/svg" viewBox="0 0 511.97 512">
  <title>email verified users</title>
  <path d="M347.28,295.26V492H20V295.26H347.28m0-20H20a20,20,0,0,0-20,20V492a20,20,0,0,0,20,20H347.28a20,20,0,0,0,20-20V295.26a20,20,0,0,0-20-20h0Zm-36.15,72.86a10,10,0,0,0-11.75-16.19L185.56,414.52,67.82,331.47a10,10,0,0,0-11.53,16.34l129.44,91.3ZM353,0a83,83,0,1,0,83,83A83,83,0,0,0,353,0ZM465.43,235.9A158.52,158.52,0,0,0,353,189.33c-61.46,0-114.79,4.88-141.24,55.93H376.9a20.64,20.64,0,0,1,20.64,20.64V512H512V348.33A158.52,158.52,0,0,0,465.43,235.9Z" transform="translate(-0.03)" fill="#231f20"/>
</svg>
