<svg id="Layer_1" data-name="Layer 1" xmlns="http://www.w3.org/2000/svg" width="78" height="28" viewBox="0 0 78 27.7"><defs><style>.cls-1{isolation:isolate;}.cls-2{fill:#fbde44;}</style></defs><title>01-“”-01</title><g class="cls-1"><path class="cls-2" d="M13,15.15A6.79,6.79,0,0,1,14.82,20a7.48,7.48,0,0,1-2.05,5.35,6.72,6.72,0,0,1-5,2.15A7,7,0,0,1,2.17,25C.73,23.33,0,20.9,0,17.7A23.48,23.48,0,0,1,6.62,1.2,3.64,3.64,0,0,1,12,1,3.25,3.25,0,0,1,13.12,3.4a3.42,3.42,0,0,1-1,2.3,15.29,15.29,0,0,0-3.9,7.2A7.38,7.38,0,0,1,13,15.15Zm19.2,0A6.79,6.79,0,0,1,34,20,7.48,7.48,0,0,1,32,25.35a6.72,6.72,0,0,1-5,2.15A7,7,0,0,1,21.37,25c-1.44-1.67-2.15-4.1-2.15-7.3a23.48,23.48,0,0,1,6.6-16.5A3.64,3.64,0,0,1,31.17,1,3.25,3.25,0,0,1,32.32,3.4a3.42,3.42,0,0,1-1,2.3,15.29,15.29,0,0,0-3.9,7.2A7.38,7.38,0,0,1,32.17,15.15Z" transform="translate(-0.02 0.1)"/><path class="cls-2" d="M56.72,2.5q2.1,2.51,2.1,7.3a23.48,23.48,0,0,1-6.6,16.5,3.64,3.64,0,0,1-5.35.25,3.22,3.22,0,0,1-1.15-2.45,3.37,3.37,0,0,1,1-2.3,15.29,15.29,0,0,0,3.9-7.2,7.33,7.33,0,0,1-4.75-2.25A6.75,6.75,0,0,1,44,7.5a7.44,7.44,0,0,1,2-5.35,7.27,7.27,0,0,1,10.65.35Zm19.2,0Q78,5,78,9.8a23.48,23.48,0,0,1-6.6,16.5,3.64,3.64,0,0,1-5.35.25,3.22,3.22,0,0,1-1.15-2.45,3.37,3.37,0,0,1,1-2.3,15.29,15.29,0,0,0,3.9-7.2,7.33,7.33,0,0,1-4.75-2.25A6.75,6.75,0,0,1,63.22,7.5a7.44,7.44,0,0,1,2-5.35,7.27,7.27,0,0,1,10.65.35Z" transform="translate(-0.02 0.1)"/></g></svg>